<svg xmlns="http://www.w3.org/2000/svg" viewBox="0 0 160 160">
  <circle class="backdrop" cx="80" cy="80" r="64"/>
  <path class="line-ink" d="M58 32v16M102 32v16"/>
  <rect class="surface line" x="34" y="40" width="92" height="86" rx="8"/>
  <path class="primary line" d="M34 48a8 8 0 0 1 8-8h76a8 8 0 0 1 8 8v14H34Z"/>
  <circle class="muted" cx="50" cy="80" r="4"/><circle class="muted" cx="65" cy="80" r="4"/><circle class="muted" cx="80" cy="80" r="4"/><circle class="muted" cx="95" cy="80" r="4"/><circle class="muted" cx="110" cy="80" r="4"/><circle class="muted" cx="50" cy="96" r="4"/><circle class="muted" cx="65" cy="96" r="4"/><circle class="muted" cx="80" cy="96" r="4"/><circle class="muted" cx="110" cy="96" r="4"/><circle class="muted" cx="50" cy="112" r="4"/><circle class="muted" cx="65" cy="112" r="4"/><circle class="muted" cx="80" cy="112" r="4"/><circle class="muted" cx="95" cy="112" r="4"/><circle class="muted" cx="110" cy="112" r="4"/>
  <circle class="success" cx="95" cy="96" r="9"/>
  <path class="line-surface" d="m90.5 96 3 3 6-6"/>
  <path class="accent" d="M132 111Q134 116 139 118Q134 120 132 125Q130 120 125 118Q130 116 132 111Z"/>
  <path class="line-accent" d="M28 26v8M24 30h8"/>
</svg>
