<svg xmlns="http://www.w3.org/2000/svg" viewBox="0 0 148.56 148.56"><defs><style>.cls-1{isolation:isolate;}.cls-2{fill:#3498db;}.cls-2,.cls-3,.cls-4,.cls-5{fill-rule:evenodd;}.cls-3{fill:#efc94c;}.cls-4{fill:#b280c1;}.cls-5{fill:#ff726b;}</style></defs><g id="Calque_2" data-name="Calque 2"><g id="Rectangle_1" data-name="Rectangle 1" class="cls-1"><g id="Rectangle_1-2" data-name="Rectangle 1"><path class="cls-2" d="M60,0H36A36,36,0,0,0,0,36V60A12,12,0,0,0,12,72H72V12A12,12,0,0,0,60,0Z"/></g></g><g id="Rectangle_1_copie" data-name="Rectangle 1 copie" class="cls-1"><g id="Rectangle_1_copie-2" data-name="Rectangle 1 copie"><path class="cls-3" d="M112.56,0h-24a12,12,0,0,0-12,12V72h60a12,12,0,0,0,12-12V36A36,36,0,0,0,112.56,0Z"/></g></g><g id="Rectangle_1_copie_2" data-name="Rectangle 1 copie 2" class="cls-1"><g id="Rectangle_1_copie_2-2" data-name="Rectangle 1 copie 2"><path class="cls-4" d="M12,76.56a12,12,0,0,0-12,12v24a36,36,0,0,0,36,36H60a12,12,0,0,0,12-12v-60Z"/></g></g><g id="Rectangle_1_copie_3" data-name="Rectangle 1 copie 3" class="cls-1"><g id="Rectangle_1_copie_3-2" data-name="Rectangle 1 copie 3"><path class="cls-5" d="M136.56,76.56h-60v60a12,12,0,0,0,12,12h24a36,36,0,0,0,36-36v-24A12,12,0,0,0,136.56,76.56Z"/></g></g></g></svg>